<?xml version="1.0" encoding="UTF-8" standalone="no"?>
<svg width="76px" height="82px" viewBox="0 0 76 82" version="1.1" xmlns="http://www.w3.org/2000/svg" xmlns:xlink="http://www.w3.org/1999/xlink">
    <!-- Generator: Sketch 39.1 (31720) - http://www.bohemiancoding.com/sketch -->
    <title>Group</title>
    <desc>Created with Sketch.</desc>
    <defs></defs>
    <g id="Page-1" stroke="none" stroke-width="1" fill="none" fill-rule="evenodd">
        <g id="Group">
            <path d="M11.2815,21.7214 C11.2815,15.9424 15.9825,11.2414 21.7615,11.2414 C24.2315,11.2414 26.5005,12.1054 28.2935,13.5404 L36.2375,5.5974 C32.3955,2.1454 27.3205,0.0404 21.7615,0.0404 C9.8065,0.0404 0.0805,9.7664 0.0805,21.7214 C0.0805,33.6764 9.8065,43.4024 21.7615,43.4024 L29.8995,43.4024 L29.8995,32.2004 L21.7615,32.2004 C15.9825,32.2004 11.2815,27.4994 11.2815,21.7214" id="Fill-83" fill="#334A54"></path>
            <path d="M53.9197,37.6956 L45.7827,37.6956 L45.7827,48.8966 L53.9197,48.8966 C59.6977,48.8966 64.3997,53.5986 64.3997,59.3766 C64.3997,65.1556 59.6977,69.8566 53.9197,69.8566 C48.1417,69.8566 43.4397,65.1556 43.4397,59.3766 L43.4427,21.7216 C43.4427,16.1576 41.3347,11.0776 37.8767,7.2346 L29.9337,15.1776 C31.3737,16.9726 32.2417,19.2466 32.2417,21.7216 L32.2387,59.3766 C32.2387,71.3316 41.9647,81.0576 53.9197,81.0576 C65.8747,81.0576 75.6007,71.3316 75.6007,59.3766 C75.6007,47.4216 65.8747,37.6956 53.9197,37.6956" id="Fill-85" fill="#1E8EA5"></path>
        </g>
    </g>
</svg>